<svg xmlns="http://www.w3.org/2000/svg" width="25" height="26" viewBox="0 0 25 26">
    <path fill="#4A4A4A" fill-rule="nonzero" d="M12.5 23.104a10.765 10.765 0 0 1-7.513-3.015c3.341-1.001 5.162-1.64 5.405-1.896.89-.938.095-2.727-.332-3.688-.061-.138-.11-.243-.132-.307-.014-.122-.072-.26-.182-.519-.243-.575-.696-1.648-.553-2.498.203-1.213.244-1.72.104-2.52-.002-.012-.207-1.247.568-2.126.538-.61 1.435-.92 2.667-.92 3.467 0 3.532 2.489 3.534 2.572-.004.078-.097 1.933.06 2.733.077.395-.195 2.107-.817 3.18-1.116 1.923-1.33 3.238-.633 3.906.646.62 4.028 1.706 5.315 2.105a10.767 10.767 0 0 1-7.491 2.993m0-20.308c5.832 0 10.577 4.555 10.577 10.154 0 2.46-.916 4.717-2.437 6.476-.008-.003-.014-.01-.022-.012-1.957-.592-4.902-1.606-5.318-2.006-.268-.256-.223-1.17.78-2.898.702-1.21 1.037-3.108.911-3.746-.113-.583-.07-2.028-.044-2.557 0-.034-.05-3.438-4.415-3.438-1.503 0-2.627.41-3.34 1.22-.828.937-.87 2.209-.765 2.812.114.651.096 1.05-.104 2.246-.182 1.084.33 2.298.606 2.95.048.112.106.249.123.303.01.119.068.248.197.537.27.607.981 2.208.51 2.765-.384.228-3.025 1.082-5.424 1.796-1.506-1.755-2.412-4.002-2.412-6.448 0-5.599 4.745-10.154 10.577-10.154m0-.846c-6.318 0-11.458 4.934-11.458 11s5.14 11 11.458 11c6.318 0 11.458-4.934 11.458-11s-5.14-11-11.458-11"/>
</svg>
