<svg xmlns="http://www.w3.org/2000/svg" width="25" height="26" viewBox="0 0 25 26">
    <g fill="#4A4A4A" fill-rule="evenodd">
        <path d="M12.5 2.796c-5.832 0-10.577 4.555-10.577 10.154S6.668 23.104 12.5 23.104s10.577-4.555 10.577-10.154S18.332 2.796 12.5 2.796m0 21.154c-6.319 0-11.458-4.934-11.458-11s5.14-11 11.458-11c6.318 0 11.458 4.934 11.458 11s-5.14 11-11.458 11"/>
        <path d="M13.425 13.5c-.336.358-.504.719-.504 1.565h-1.278c.01-.846.07-.963.186-1.268.116-.304.35-.653.706-1.023l.904-.9c.386-.419.58-.872.58-1.353 0-.463-.126-.827-.38-1.09-.253-.262-.621-.394-1.105-.394-.47 0-.848-.065-1.133.174-.286.238-.428.777-.428.777H9.695c.01-.423.275-1.11.798-1.55.522-.44 1.203-.569 2.041-.569.87 0 1.548.27 2.034.719.486.448.729 1.086.729 1.867 0 .772-.373 1.556-1.119 2.307l-.753.738zM12.34 16.418c.25 0 .438.068.567.204.13.136.194.304.194.505 0 .2-.065.367-.194.499-.13.131-.318.198-.566.198-.249 0-.437-.067-.564-.198a.692.692 0 0 1-.19-.499c0-.201.064-.369.19-.505.127-.136.315-.204.564-.204"/>
    </g>
</svg>
