<svg xmlns="http://www.w3.org/2000/svg" xmlns:xlink="http://www.w3.org/1999/xlink" width="25" height="26" viewBox="0 0 25 26">
    <defs>
        <path id="a" d="M18.336.138H0v16.346h18.336V.138z"/>
    </defs>
    <g fill="none" fill-rule="evenodd">
        <g transform="translate(1.042 3.285)">
            <mask id="b" fill="#fff">
                <use xlink:href="#a"/>
            </mask>
            <path fill="#4A4A4A" d="M7.824 16.484a.438.438 0 0 1-.43-.326L5.139 6.955 3.64.984h-3.2A.432.432 0 0 1 0 .561C0 .328.197.138.44.138H3.99c.203 0 .38.134.429.324L5.996 6.76l2.177 8.88 9.723-.003c.242 0 .44.19.44.424a.432.432 0 0 1-.44.423l-10.072.001z" mask="url(#b)"/>
        </g>
        <path fill="#4A4A4A" d="M8.63 17.258a.432.432 0 0 1-.44-.423c0-.233.197-.423.44-.423l11.82-.013 2.456-7.062H6.81a.432.432 0 0 1-.44-.424c0-.233.196-.423.44-.423h16.706c.142 0 .275.066.358.176a.41.41 0 0 1 .06.382l-2.75 7.907a.44.44 0 0 1-.418.29l-12.136.013zM8.865 19.77c-.733 0-1.33.572-1.33 1.277 0 .704.597 1.276 1.33 1.276.734 0 1.33-.572 1.33-1.276 0-.705-.596-1.278-1.33-1.278m0 3.4c-1.22 0-2.211-.952-2.211-2.122 0-1.171.992-2.124 2.211-2.124 1.22 0 2.212.953 2.212 2.124 0 1.17-.992 2.123-2.212 2.123M18.937 19.77c-.733 0-1.33.572-1.33 1.277 0 .704.597 1.276 1.33 1.276.733 0 1.33-.572 1.33-1.276 0-.705-.597-1.278-1.33-1.278m0 3.4c-1.22 0-2.212-.952-2.212-2.122 0-1.171.992-2.124 2.212-2.124 1.22 0 2.212.953 2.212 2.124 0 1.17-.992 2.123-2.212 2.123"/>
    </g>
</svg>
