<svg xmlns="http://www.w3.org/2000/svg" xmlns:xlink="http://www.w3.org/1999/xlink" width="30" height="30" viewBox="0 0 30 30">
    <defs>
        <path id="a" d="M0 25.666V0h19.41v25.666H0z"/>
    </defs>
    <g fill="none" fill-rule="evenodd" transform="translate(5 2.167)">
        <mask id="b" fill="#fff">
            <use xlink:href="#a"/>
        </mask>
        <path fill="#4A4A4A" d="M9.705 5.252c-2.176 0-3.947 1.615-3.947 3.6 0 1.986 1.77 3.601 3.947 3.601 2.176 0 3.947-1.615 3.947-3.6 0-1.986-1.771-3.6-3.947-3.6m0 8.187c-2.773 0-5.03-2.058-5.03-4.588 0-2.53 2.257-4.587 5.03-4.587s5.029 2.058 5.029 4.587c0 2.53-2.256 4.588-5.03 4.588m0-12.453c-4.754 0-8.622 3.529-8.622 7.865 0 .092.003.185.008.279.032.818.197 1.612.493 2.367 1.627 4.878 6.63 11.085 8.122 12.869 1.49-1.784 6.493-7.99 8.112-12.846a7.296 7.296 0 0 0 .51-2.669c0-4.336-3.868-7.865-8.622-7.865m0 24.68a.56.56 0 0 1-.424-.187c-.275-.315-6.762-7.787-8.725-13.672a8.092 8.092 0 0 1-.547-2.636 5.639 5.639 0 0 1-.01-.32C0 3.971 4.354 0 9.706 0c5.351 0 9.705 3.97 9.705 8.852 0 .107-.004.216-.01.325a8.126 8.126 0 0 1-.555 2.654c-1.955 5.862-8.442 13.334-8.717 13.65a.56.56 0 0 1-.423.185" mask="url(#b)"/>
    </g>
</svg>
