<svg xmlns="http://www.w3.org/2000/svg" xmlns:xlink="http://www.w3.org/1999/xlink" width="24" height="24" viewBox="0 0 24 24">
    <defs>
        <path id="a" d="M7.675.923c-1.73 0-3.458.658-4.775 1.974A6.71 6.71 0 0 0 .923 7.67 6.71 6.71 0 0 0 2.9 12.445c2.632 2.632 6.917 2.633 9.549 0a6.71 6.71 0 0 0 1.978-4.774 6.71 6.71 0 0 0-1.978-4.774A6.732 6.732 0 0 0 7.675.923m5.427 1.321a7.627 7.627 0 0 1 2.248 5.427 7.62 7.62 0 0 1-1.932 5.09L23.865 23.21a.461.461 0 1 1-.653.652L12.765 13.415a7.653 7.653 0 0 1-5.09 1.927 7.65 7.65 0 0 1-5.427-2.244A7.626 7.626 0 0 1 0 7.671c0-2.05.798-3.977 2.248-5.427 2.992-2.992 7.86-2.992 10.854 0z"/>
    </defs>
    <g fill="none" fill-rule="evenodd">
        <mask id="b" fill="#fff">
            <use xlink:href="#a"/>
        </mask>
        <use fill="#9B9B9B" xlink:href="#a"/>
        <path fill="#9B9B9B" fill-rule="nonzero" d="M0 0h24v24H0z" mask="url(#b)"/>
    </g>
</svg>
